<?xml version="1.0" standalone="no"?><!DOCTYPE svg PUBLIC "-//W3C//DTD SVG 1.1//EN" "http://www.w3.org/Graphics/SVG/1.1/DTD/svg11.dtd"><svg t="1535280812889" class="icon" style="" viewBox="0 0 1024 1024" version="1.1" xmlns="http://www.w3.org/2000/svg" p-id="1909" xmlns:xlink="http://www.w3.org/1999/xlink" width="200" height="200"><defs><style type="text/css"></style></defs><path d="M872.025312 635.575787c-16.653227 0-30.155995-13.502768-30.155995-30.155995 0-16.656025 13.502768-30.155995 30.155995-30.155995 50.541649 0 91.662697-41.121048 91.662698-91.665495 0-50.541649-41.11825-91.662697-91.662698-91.662698-83.800539 0-151.977485-68.176947-151.977485-151.977485s68.176947-151.977485 151.977485-151.977486c16.653227 0 30.155995 13.502768 30.155995 30.155995 0 16.656025-13.502768 30.155995-30.155995 30.155995-50.544447 0-91.665495 41.121048-91.665495 91.662698s41.11825 91.665495 91.665495 91.665495c83.797741 0 151.974688 68.176947 151.974688 151.974688 0 83.800539-68.176947 151.980283-151.974688 151.980283z" fill="#967A4A" p-id="1910"></path><path d="M171.425836 644.501156c-36.50168 0-66.086899 29.588017-66.0869 66.084101v137.32757H44.151197c-24.325127 0-44.05327 19.722547-44.05327 44.05327v24.171242a19.884826 19.884826 0 0 0 19.887624 19.884826h173.465521c24.327925 0 44.05327-19.722547 44.05327-44.056068v-181.38084c0.002798-36.50168-29.585219-66.084102-66.078506-66.084101z" fill="#826A40" p-id="1911"></path><path d="M716.206281 433.977169H145.609417V724.465745c0 109.267218 88.579388 197.843808 197.843808 197.843808h372.753056v-1.407355c134.465296 0 243.463914-109.001415 243.463914-243.461116-0.002798-134.462499-109.001415-243.463914-243.463914-243.463913z" fill="#967A4A" p-id="1912"></path><path d="M459.261983 433.977169v143.158437c0 27.095069 21.96648 49.061549 49.061549 49.061549 27.097867 0 49.064347-21.96648 49.064346-49.061549v-143.158437h-98.125895zM629.94637 433.977169v143.158437c0 27.095069 21.969278 49.061549 49.061548 49.061549 27.100665 0 49.064347-21.96648 49.064347-49.061549v-143.158437h-98.125895z" fill="#65513C" p-id="1913"></path><path d="M740.32716 598.469756c-93.20715 0-168.773407 75.560661-168.773407 168.773406 0 29.218691 7.428481 56.699874 20.494773 80.666867h-17.794779c-24.325127 0-44.05327 19.722547-44.053269 44.05327v24.171242a19.884826 19.884826 0 0 0 19.887624 19.884826h190.239058c93.209948 0 168.776205-75.560661 168.776205-168.776205 0-93.212746-75.566257-168.773407-168.776205-168.773406zM393.838191 644.501156c-36.50168 0-66.084102 29.588017-66.084102 66.084101v137.32757H266.56635c-24.327925 0-44.05327 19.722547-44.05327 44.05327v24.171242a19.882028 19.882028 0 0 0 19.884826 19.884826h173.46552c24.327925 0 44.05327-19.722547 44.05327-44.056068v-181.38084c0.002798-36.50168-29.585219-66.084102-66.078505-66.084101z" fill="#AD8D56" p-id="1914"></path><path d="M482.347631 236.043827V125.68542a23.007306 23.007306 0 0 0-23.010104-23.010105 22.931762 22.931762 0 0 0-15.679551 6.166619l-87.642085 87.642085c-32.867181-21.949692-72.351445-34.766969-114.843475-34.76697s-81.979092 12.817277-114.846272 34.769767L38.684059 108.841934A23.007306 23.007306 0 0 0 0 125.68542v277.699278c0 133.197838 107.977376 257.431137 241.175214 257.431136 133.19504 0 241.175214-124.233299 241.175215-257.431136l-0.002798-167.340871z" fill="#967A4A" p-id="1915"></path><path d="M288.904953 398.219735h-95.465073c-29.022837 0-52.550557 23.530518-52.550556 52.553355 0 29.025635 23.52772 52.553354 52.550556 52.553354 21.202647 0 39.42271-12.579454 47.735334-30.656823 8.309826 18.077369 26.529889 30.656823 47.732537 30.656823 29.022837 0 52.553354-23.52772 52.553354-52.553354-0.002798-29.025635-23.533315-52.553354-52.556152-52.553355z" fill="#FFFFFF" p-id="1916"></path><path d="M102.328373 352.045641m-24.06492 0a24.064921 24.064921 0 1 0 48.129841 0 24.064921 24.064921 0 1 0-48.129841 0Z" fill="#333E48" p-id="1917"></path><path d="M380.01646 352.042843m-24.062123 0a24.062123 24.062123 0 1 0 48.124245 0 24.062123 24.062123 0 1 0-48.124245 0Z" fill="#333E48" p-id="1918"></path><path d="M270.959086 433.230124c-15.091987 15.648773-40.234107 16.096441-55.874487 0.99606l-17.442241-16.843486c-15.64038-15.103179-10.651686-27.458799 11.09096-27.458799h64.458509c21.739848 0 27.179007 12.806085 12.08702 28.454859l-14.319761 14.851366z" fill="#333E48" p-id="1919"></path><path d="M241.172416 161.717049c-16.910636 0-33.328838 2.076058-49.064346 5.898018v67.71529c0 27.095069 21.969278 49.061549 49.064346 49.061549s49.061549-21.96648 49.061549-49.061549V167.615067a207.566585 207.566585 0 0 0-49.061549-5.898018z" fill="#65513C" p-id="1920"></path></svg>